0
SECTION
2
HEADER
9
$INSUNITS
70
4
9
$ACADVER
1
AC1014
9
$HANDSEED
5
FFFF
0
ENDSEC
0
SECTION
2
TABLES
0
TABLE
2
VPORT
5
8
100
AcDbSymbolTable
0
ENDTAB
0
TABLE
2
LTYPE
5
5
100
AcDbSymbolTable
0
LTYPE
5
14
100
AcDbSymbolTableRecord
100
AcDbLinetypeTableRecord
2
BYBLOCK
70
0
0
LTYPE
5
15
100
AcDbSymbolTableRecord
100
AcDbLinetypeTableRecord
2
BYLAYER
70
0
0
ENDTAB
0
TABLE
2
LAYER
5
2
100
AcDbSymbolTable
70
2
0
LAYER
5
50
100
AcDbSymbolTableRecord
100
AcDbLayerTableRecord
2
0
70
0
6
CONTINUOUS
0
ENDTAB
0
TABLE
2
STYLE
5
3
100
AcDbSymbolTable
70
1
0
STYLE
5
11
100
AcDbSymbolTableRecord
100
AcDbTextStyleTableRecord
2
STANDARD
70
0
0
ENDTAB
0
TABLE
2
VIEW
5
6
100
AcDbSymbolTable
70
0
0
ENDTAB
0
TABLE
2
UCS
5
7
100
AcDbSymbolTable
70
0
0
ENDTAB
0
TABLE
2
APPID
5
9
100
AcDbSymbolTable
70
2
0
APPID
5
12
100
AcDbSymbolTableRecord
100
AcDbRegAppTableRecord
2
ACAD
70
0
0
ENDTAB
0
TABLE
2
DIMSTYLE
5
A
100
AcDbSymbolTable
70
1
0
ENDTAB
0
TABLE
2
BLOCK_RECORD
5
1
100
AcDbSymbolTable
70
1
0
BLOCK_RECORD
5
1F
100
AcDbSymbolTableRecord
100
AcDbBlockTableRecord
2
*MODEL_SPACE
0
BLOCK_RECORD
5
1B
100
AcDbSymbolTableRecord
100
AcDbBlockTableRecord
2
*PAPER_SPACE
0
ENDTAB
0
ENDSEC
0
SECTION
2
BLOCKS
0
BLOCK
5
20
100
AcDbEntity
100
AcDbBlockBegin
2
*MODEL_SPACE
0
ENDBLK
5
21
100
AcDbEntity
100
AcDbBlockEnd
0
BLOCK
5
1C
100
AcDbEntity
100
AcDbBlockBegin
2
*PAPER_SPACE
0
ENDBLK
5
1D
100
AcDbEntity
100
AcDbBlockEnd
0
ENDSEC
0
SECTION
2
ENTITIES
0
LWPOLYLINE
5
100
100
AcDbEntity
8
0
100
AcDbPolyline
90
25
70
1
43
0.0
10
-214.94471564047302
20
13.018800336325761
10
-215
20
13.018800336325764
10
-215
20
13.000000000000004
10
-235
20
13.000000000000004
10
-235
20
-25
10
-215
20
-25
10
-215
20
-25.017992100023115
10
-234.98535208861108
20
-25.017992100023115
10
-215
20
-59.992358255092483
10
-215
20
-75
42
0.559874679321408
10
-100.00000000000001
20
-75.000000000000028
10
-100
20
-25
10
-99.973843327569483
20
-25
10
-99.973843327569483
20
-59.994974577939992
10
-79.973843327569483
20
-24.994974577939995
10
-80
20
-24.994974577939995
10
-80
20
13.000000000000004
10
-100
20
13.000000000000004
10
-100
20
13.004999999999999
10
-80
20
13.004999999999999
10
-100
20
48.004999999999995
10
-100
20
200
10
-215
20
200
10
-215
20
47.922052707153533
10
-214.94471564047302
20
48.018800336325754
0
LWPOLYLINE
5
101
100
AcDbEntity
8
0
100
AcDbPolyline
90
24
70
1
43
0.0
10
-215
20
13.018800336325761
10
-234.94471564047302
20
13.018800336325761
10
-215
20
47.92205270715354
10
-215
20
200
10
-100
20
200
10
-100
20
48.004999999999995
10
-80
20
13.004999999999999
10
-100
20
13.004999999999999
10
-100
20
13.000000000000007
10
-80
20
13.000000000000004
10
-80
20
-24.994974577939995
10
-79.973843327569483
20
-24.994974577939995
10
-99.973843327569483
20
-59.994974577939992
10
-99.973843327569483
20
-25
10
-100
20
-25
10
-100
20
-74.999999999999986
42
-0.55987467932140822
10
-215
20
-75
10
-215
20
-59.992358255092483
10
-234.98535208861108
20
-25.017992100023115
10
-215
20
-25.017992100023115
10
-215
20
-25
10
-235
20
-25
10
-235
20
13.000000000000004
10
-215
20
13.000000000000007
0
ENDSEC
0
SECTION
2
OBJECTS
0
DICTIONARY
5
C
100
AcDbDictionary
3
ACAD_GROUP
350
D
3
ACAD_MLINESTYLE
350
17
0
DICTIONARY
5
D
100
AcDbDictionary
0
DICTIONARY
5
1A
330
C
100
AcDbDictionary
0
DICTIONARY
5
17
100
AcDbDictionary
0
ENDSEC
0
EOF
